<svg height="512pt" viewBox="-64 0 512 512" width="512pt" xmlns="http://www.w3.org/2000/svg"><path d="m119.714844 67.625c2.515625 0 4.554687-2.039062 4.554687-4.554688 0-2.515624-2.039062-4.550781-4.554687-4.550781h-29.609375c-2.625 0-4.75 2.125-4.75 4.746094v43.425781c0 2.621094 2.125 4.746094 4.75 4.746094h29.609375c2.515625 0 4.554687-2.035156 4.554687-4.550781s-2.039062-4.550781-4.554687-4.550781h-24.863282v-11.25h20.195313c2.511719 0 4.550781-2.035157 4.550781-4.550782s-2.039062-4.550781-4.550781-4.550781h-20.195313v-14.359375zm0 0"/><path d="m134.433594 110.476562c1.960937 1.738282 4.957031 1.546876 6.699218-.410156l15.960938-17.933594 15.957031 17.933594c1.742188 1.957032 4.738281 2.148438 6.703125.410156 1.960938-1.738281 2.152344-4.742187.410156-6.699218l-16.714843-18.785156 16.714843-18.789063c1.742188-1.957031 1.550782-4.960937-.414062-6.699219-1.960938-1.738281-4.957031-1.546875-6.699219.410156l-15.957031 17.933594-15.960938-17.933594c-1.742187-1.957031-4.734374-2.148437-6.699218-.410156-1.964844 1.738282-2.15625 4.742188-.410156 6.699219l16.714843 18.785156-16.714843 18.785157c-1.746094 1.960937-1.554688 4.964843.410156 6.703124zm0 0"/><path d="m196.714844 108.703125 3.886718-8.859375h22.691407l3.886719 8.859375c1.054687 2.402344 3.859374 3.492187 6.257812 2.4375 2.402344-1.054687 3.5-3.863281 2.4375-6.257813l-19.550781-44.042968c-1.675781-3.78125-7.078125-3.78125-8.753907 0l-19.546874 44.042968c-1.066407 2.394532.035156 5.199219 2.433593 6.257813 2.398438 1.054687 5.203125-.035156 6.257813-2.4375zm15.234375-34.710937 7.175781 16.355468h-14.355469zm0 0"/><path d="m271.308594 82.273438c-17.910156-21.136719-17.976563-23.753907-21.738282-23.753907-2.621093 0-4.75 2.125-4.75 4.746094v43.425781c0 2.621094 2.128907 4.746094 4.75 4.746094 2.621094 0 4.746094-2.125 4.746094-4.746094v-30.636718l13.398438 16.3125c1.835937 2.234374 5.34375 2.246093 7.1875 0l13.398437-16.3125v30.636718c0 2.621094 2.125 4.746094 4.746094 4.746094s4.746094-2.125 4.746094-4.746094v-43.425781c0-2.621094-2.125-4.746094-4.746094-4.746094-3.71875 0-3.167969 1.835938-21.738281 23.753907zm0 0"/><path d="m88.644531 163.515625c-19.332031 0-35.058593 15.726563-35.058593 35.054687 0 19.332032 15.726562 35.058594 35.058593 35.058594 19.328125 0 35.054688-15.726562 35.054688-35.058594 0-19.328124-15.726563-35.054687-35.054688-35.054687zm0 55.089844c-11.046875 0-20.035156-8.988281-20.035156-20.035157 0-11.046874 8.988281-20.03125 20.035156-20.03125 11.042969 0 20.03125 8.984376 20.03125 20.03125 0 11.046876-8.988281 20.035157-20.03125 20.035157zm0 0"/><path d="m322.050781 191.058594h-164.964843c-4.152344 0-7.511719 3.363281-7.511719 7.511718 0 4.148438 3.359375 7.511719 7.511719 7.511719h164.964843c4.148438 0 7.511719-3.363281 7.511719-7.511719 0-4.148437-3.363281-7.511718-7.511719-7.511718zm0 0"/><path d="m88.644531 261.847656c-19.332031 0-35.058593 15.726563-35.058593 35.054688 0 19.332031 15.726562 35.058594 35.058593 35.058594 19.328125 0 35.054688-15.726563 35.054688-35.058594 0-19.328125-15.726563-35.054688-35.054688-35.054688zm0 55.089844c-11.046875 0-20.035156-8.988281-20.035156-20.035156 0-11.042969 8.988281-20.03125 20.035156-20.03125 11.042969 0 20.03125 8.988281 20.03125 20.03125 0 11.046875-8.988281 20.035156-20.03125 20.035156zm0 0"/><path d="m322.050781 289.390625h-164.964843c-4.152344 0-7.511719 3.363281-7.511719 7.511719 0 4.152344 3.359375 7.515625 7.511719 7.515625h164.964843c4.148438 0 7.511719-3.363281 7.511719-7.515625 0-4.148438-3.363281-7.511719-7.511719-7.511719zm0 0"/><path d="m322.050781 387.726562h-164.964843c-4.152344 0-7.511719 3.363282-7.511719 7.511719 0 4.148438 3.359375 7.511719 7.511719 7.511719h164.964843c4.148438 0 7.511719-3.363281 7.511719-7.511719 0-4.148437-3.363281-7.511719-7.511719-7.511719zm0 0"/><path d="m338.945312 0h-27.128906c-4.152344 0-7.511718 3.363281-7.511718 7.511719 0 4.148437 3.359374 7.511719 7.511718 7.511719h27.128906c16.089844 0 29.179688 13.089843 29.179688 29.179687v423.59375c0 16.089844-13.089844 29.179687-29.179688 29.179687h-294.742187c-16.089844 0-29.179687-13.089843-29.179687-29.179687v-423.59375c0-16.089844 13.089843-29.179687 29.179687-29.179687h239.566406c4.148438 0 7.511719-3.363282 7.511719-7.511719 0-4.148438-3.363281-7.511719-7.511719-7.511719h-239.566406c-24.375 0-44.203125 19.828125-44.203125 44.203125v423.59375c0 24.375 19.828125 44.203125 44.203125 44.203125h294.742187c24.375 0 44.203126-19.828125 44.203126-44.203125v-423.59375c0-24.375-19.828126-44.203125-44.203126-44.203125zm0 0"/><path d="m98.835938 412.480469c-3.570313 2.117187-4.746094 6.726562-2.632813 10.292969 2.117187 3.574218 6.730469 4.742187 10.292969 2.632812 10.609375-6.292969 17.203125-17.851562 17.203125-30.167969 0-19.332031-15.726563-35.058593-35.058594-35.058593-19.328125 0-35.054687 15.726562-35.054687 35.058593 0 12.316407 6.589843 23.875 17.203124 30.167969 3.566407 2.113281 8.175782.9375 10.292969-2.632812 2.113281-3.566407.9375-8.175782-2.632812-10.292969-17.539063-10.398438-10.046875-37.277344 10.191406-37.277344 11.046875 0 20.035156 8.988281 20.035156 20.035156 0 7.039063-3.769531 13.644531-9.839843 17.242188zm0 0"/></svg>