<?xml version="1.0" encoding="utf-8"?>
<!-- Generator: Adobe Illustrator 23.0.0, SVG Export Plug-In . SVG Version: 6.00 Build 0)  -->
<svg version="1.1" id="Camada_1" xmlns="http://www.w3.org/2000/svg" xmlns:xlink="http://www.w3.org/1999/xlink" x="0px" y="0px"
	 viewBox="0 0 1238 186.2" style="enable-background:new 0 0 1238 186.2;" xml:space="preserve">
<style type="text/css">
	.st0{fill:#FFFFFF;}
	.st1{fill:#00B541;}
</style>
<g>
	<g>
		<path class="st0" d="M26.6,48.5C33,29.7,55.8,10.6,103.3,7.9c33.4-2,64.6,14.1,56.4,38.6c-7.7,23-38.9,17.1-38.9,16.1
			c-1.7-15.4-8.2-23.5-21.3-24C88,37.9,80.8,42.3,77.8,50.3c-3.7,9.9,3.7,21,22.5,32.7c35.9,22.3,50.3,55,20.8,82.9
			c-15.6,14.4-38.1,20.8-67.3,20.1c-41.3-1-61.6-26.7-51-48.3c10.6-21.8,44.1-18.1,43.6-15.1c-2,13.4-0.5,24.3,12.1,28.7
			c10.9,3.5,20.8-2.5,24.5-8.2c5.7-9.2,3.5-21.8-25.7-38.1C29.5,89.4,19.6,69.3,26.6,48.5z"/>
		<path class="st0" d="M216.3,71.3c5.4,24.3-37.9,81.7-26.7,109.7c-24.8,9.9-46.5,5.2-46.3-17.1c0.3-25.8,34.9-80,34.4-107.5
			C198,57.2,214.3,63.1,216.3,71.3z M231.2,34.9c-9.4,12.1-23.5,15.8-35.2,9.2c-11.9-6.9-13.1-19.6-3.7-31.7
			c9.4-12.1,23.5-15.8,35.4-8.9C239.3,10.2,240.6,22.8,231.2,34.9z"/>
		<path class="st0" d="M257.9,155c-2.5,9.9-3,18.8-0.3,26c-24.8,9.9-46.5,5.2-46.3-17.1c0.3-25.8,34.9-80,34.4-107.5
			c20.3,0.7,36.6,6.7,38.6,14.8c1,4.5,0.3,10.4-1.5,16.8c12.6-12.6,26-20.8,38.9-26.7c16.8-7.9,33.2-5.9,36.4,4.2
			c2,5.9,0.5,14.4-2.5,24.3c12.9-13.6,26.7-22.3,40.1-28.5c17.1-7.9,33.4-5.9,36.6,4.2c7.4,23.8-38.4,87.6-27.2,115.4
			c-24.8,10.2-46.5,5.4-46.3-17.1c0-20.3,12.1-40.6,21.8-69.3c5.7-17.1-50.5,36.4-51.5,75.5c0,4,0.5,7.7,1.7,10.9
			c-24.8,10.2-46.5,5.4-46.3-17.1c0.2-20.3,12.4-40.6,21.8-69.3C311.4,79.7,269.6,118.8,257.9,155z"/>
		<path class="st0" d="M452.7,61.2c24.8-10.2,46.5-5.4,46.3,17.1c-0.3,28-35.2,70.1-21.8,70.1c27,0,55.5-62.9,58.9-91.8
			c20.3,0.7,36.9,6.7,38.6,14.8C580.4,95.6,536.8,153,548,181c-24.8,9.9-46.5,5.2-46.3-17.1c0-3.5,0.7-7.4,1.7-11.6
			c-14.1,20.1-29.5,33.4-45.3,33.4c-18.6,0-31-10.6-30.7-28.7C427.7,129.7,463.8,88.9,452.7,61.2z"/>
		<path class="st0" d="M658.5,22.8c0.7,49.3-53.7,130.2-42.6,158.2c-24.8,9.9-46.5,5.2-46.3-17.1c0.3-25.8,47.3-102.5,49-157.2
			C638.9,7.4,658.5,14.6,658.5,22.8z"/>
		<path class="st0" d="M726.1,152.3c-14.1,18.6-30,32.7-46.3,33.2c-30.5,1.2-43.8-26.5-34.4-61.4c9.4-34.9,42.6-67.3,79.5-67.3
			c14.9,0,25.3,4.2,30.5,16.6c2-6.4,3.2-12.4,3.5-16.8c20,0.7,36.6,6.7,38.4,14.8c5.7,24.3-37.6,81.7-26.5,109.7
			c-24.8,9.9-46.5,5.4-46.3-17.1C724.4,160.4,725.1,156.7,726.1,152.3z M690,120.6c-4.2,15.1-2.2,30.7,8.9,30.7
			c11.9,0,31.2-25.3,44.8-51.2c5.5-11.4-0.2-18.1-14.1-18.1C710.8,82.2,694.7,103.7,690,120.6z"/>
		<path class="st0" d="M844.3,140.4c-6.7,14.9-9.2,30.2-4.9,40.6c-24.8,9.9-46.5,5.2-46.3-17.1c0.3-25.8,34.9-80,34.4-107.5
			c20.3,0.7,36.6,6.7,38.6,14.8c1.2,5.2,0,11.9-2.2,19.3c15.6-13.9,31.7-22.8,45.6-29.2c16.8-7.9,33.2-5.9,36.4,4.2
			c7.7,23.8-40.9,87.6-29.7,115.4c-24.8,10.2-46.5,5.4-46.3-17.1c0.3-20.3,14.9-40.6,24.3-69.3C898.3,81.7,859.9,106.5,844.3,140.4z
			"/>
		<path class="st0" d="M980.3,185.5c-30.2,1.2-43.8-26.5-34.4-61.4c9.4-34.9,42.6-67.3,79.5-67.3c15.1,0,25.7,4.2,30.9,17.3
			c10.9-27.2,20.3-52.5,20.1-64.4c20.3,0.7,36.6,6.7,38.6,14.9c5.4,24.3-55,128.5-43.8,156.5c-24.8,9.9-46.5,5.4-46.3-17.1
			c0-3,0.7-7.2,2-11.9C1012.7,170.6,996.6,184.9,980.3,185.5z M990.5,120.6c-4.2,15.1-2.2,30.7,8.9,30.7c12.4,0,31.7-27.5,46.1-54.5
			c3-9.4-3-14.9-15.4-14.9C1011.2,82.2,995.4,103.7,990.5,120.6z"/>
	</g>
	<g>
		<g>
			<path class="st0" d="M1184,146.3c-3.2,3.2-7.4,4.9-11.9,4.9c-4.5,0-8.7-1.7-11.9-4.9l-23.8-23.8c-3.2-3.2-4.9-7.4-4.9-11.9
				s1.7-8.7,4.9-11.9c3.2-3.2,7.4-4.9,11.9-4.9c4.5,0,8.7,1.7,11.9,4.9l11.9,11.9l32.9-32.9c-10.8-9.2-24.7-14.7-39.9-14.7
				c-34,0-61.6,27.6-61.6,61.6c0,34,27.6,61.6,61.6,61.6c34,0,61.6-27.6,61.6-61.6c0-6.4-1-12.5-2.8-18.3L1184,146.3z"/>
			<path class="st1" d="M1172.2,140c-1.4,0-2.9-0.5-4-1.6l-23.8-23.8c-2.2-2.2-2.2-5.7,0-7.9c2.2-2.2,5.7-2.2,7.9,0l19.8,19.8
				l56.2-56.2c2.2-2.2,5.7-2.2,7.9,0c2.2,2.2,2.2,5.7,0,7.9l-60.2,60.2C1175,139.5,1173.6,140,1172.2,140z"/>
		</g>
	</g>
</g>
</svg>
