<svg xmlns="http://www.w3.org/2000/svg" xmlns:xlink="http://www.w3.org/1999/xlink" width="127" height="40" viewBox="0 0 127 40"><defs><path id="vi4ia" d="M87.863 6068.373c2.161 0 3.922 1.662 3.922 3.954 0 2.275-1.76 3.953-3.922 3.953-2.16 0-3.921-1.678-3.921-3.953 0-2.292 1.76-3.954 3.921-3.954zm2.197 3.954c0-1.423-1.019-2.397-2.202-2.397-1.182 0-2.203.974-2.203 2.397 0 1.407 1.02 2.395 2.203 2.395 1.183 0 2.202-.988 2.202-2.395zm-6.83 0c0 2.275-1.758 3.953-3.916 3.953-2.159 0-3.918-1.678-3.918-3.953 0-2.292 1.759-3.954 3.918-3.954 2.158 0 3.917 1.662 3.917 3.954zm-1.704 0c0-1.423-1.023-2.397-2.207-2.397-1.185 0-2.208.974-2.208 2.397 0 1.407 1.023 2.395 2.208 2.395 1.184 0 2.207-.988 2.207-2.395zm-6.805-2.74c.06.299.089.658.089 1.047 0 1.259-.34 2.816-1.434 3.924-1.064 1.123-2.424 1.722-4.227 1.722-3.34 0-6.149-2.755-6.149-6.14 0-3.384 2.808-6.14 6.149-6.14 1.848 0 3.163.734 4.153 1.693l-1.168 1.183c-.709-.674-1.67-1.198-2.985-1.198-2.439 0-4.346 1.99-4.346 4.462 0 2.471 1.907 4.462 4.346 4.462 1.58 0 2.483-.643 3.06-1.227.472-.48.782-1.168.9-2.112h-3.96v-1.677zm36.175 1.752l-5.218 2.186c.399.793 1.02 1.197 1.892 1.197.872 0 1.479-.434 1.922-1.093l1.33.899c-.428.644-1.463 1.752-3.252 1.752-2.217 0-3.872-1.737-3.872-3.953 0-2.352 1.67-3.954 3.68-3.954 2.025 0 3.016 1.633 3.34 2.516zm-2.01-.6c-.192-.494-.769-.838-1.45-.838-.871 0-2.083.779-2.039 2.306zm-7.73-6.32h1.714v11.621h-1.714zm-2.81 4.193h1.627v7.1c0 2.919-1.7 4.117-3.71 4.117-1.892 0-3.03-1.287-3.46-2.336l1.493-.63c.266.645.917 1.409 1.967 1.409 1.286 0 2.083-.809 2.083-2.322v-.569h-.059c-.384.48-1.123.899-2.054.899-1.951 0-3.74-1.722-3.74-3.938 0-2.232 1.789-3.969 3.74-3.969.931 0 1.67.42 2.054.883h.06zm.109 3.73c0-1.393-.914-2.412-2.08-2.412-1.179 0-2.167 1.02-2.167 2.412 0 1.377.988 2.38 2.168 2.38 1.165 0 2.079-1.003 2.079-2.38zm24.058-4.313c0 2.217-1.865 3.609-3.763 3.609h-2.39v4.402h-1.712v-11.62h4.102c1.898 0 3.763 1.392 3.763 3.609zm-1.712 0c0-.918-.727-1.991-2.007-1.991h-2.435v3.983h2.435c1.28 0 2.007-1.092 2.007-1.992zm12.066 3.537v4.455h-1.655v-.897h-.06c-.399.613-1.034 1.136-2.187 1.136-1.507 0-2.852-1.002-2.852-2.557 0-1.703 1.67-2.615 3.31-2.615.814 0 1.478.268 1.789.448v-.12c-.015-.957-.916-1.495-1.803-1.495-.636 0-1.241.21-1.567.852l-1.521-.642c.532-1.226 1.817-1.779 3.059-1.779 1.965 0 3.487 1.15 3.487 3.214zm-1.673 1.316c-.456-.224-.808-.389-1.56-.389-.837 0-1.809.344-1.809 1.241 0 .703.78.986 1.34.986.984 0 1.897-.762 2.03-1.838zm9.587-4.276l-4.707 10.948h-1.786l1.741-3.913-3.054-7.035h1.844l2.037 5.033h.059l1.962-5.033zm-17.324-4.186h1.712v11.62h-1.712z"/><path id="vi4ib" d="M35.424 6055.067c-.267.286-.424.73-.424 1.305v20.54c0 .576.157 1.02.424 1.306l.068.067 11.357-11.507v-.271L35.492 6055l-.068.067"/><path id="vi4ic" d="M36.906 6055.312l13.391 7.71-3.872 3.922L35 6055.37c.225-.24.526-.369.878-.369.31 0 .66.1 1.028.312z"/><path id="vi4id" d="M50.785 6070.945L47 6067.108v-.272l3.786-3.836 4.571 2.63c1.281.739 1.281 1.945 0 2.682l-4.485 2.582-.087.05"/><path id="vi4ie" d="M50.297 6070.923L46.425 6067 35 6078.575c.423.453 1.12.509 1.906.057l13.391-7.71"/><path id="vi4if" d="M63 6059.577V6054h1.684c.846 0 1.522.258 2.03.775.506.517.76 1.187.76 2.014 0 .825-.254 1.496-.76 2.013-.508.517-1.184.775-2.03.775H63zm.706-.695h.974c.633 0 1.135-.183 1.506-.553.37-.367.556-.882.556-1.545 0-.658-.185-1.173-.556-1.543-.37-.37-.873-.556-1.506-.556h-.974z"/><path id="vi4ig" d="M63.092 6059.67h.091v-5.484h1.592c.828 0 1.476.25 1.966.747.489.5.733 1.142.734 1.949-.001.806-.245 1.449-.734 1.948-.49.497-1.138.746-1.966.747h-1.683v.093h.091-.091v.093h1.683c.864.001 1.57-.266 2.096-.802.525-.535.788-1.235.787-2.08.001-.844-.262-1.544-.787-2.078-.527-.537-1.232-.804-2.096-.803H63v5.763h.092v-.093zm.706-.685v.093h.977c.652 0 1.184-.191 1.575-.58.392-.389.586-.935.585-1.616.001-.677-.193-1.222-.584-1.613-.391-.39-.923-.584-1.576-.584h-1.069v4.393h.092v-.093h.092v-4.114h.885c.619 0 1.094.18 1.446.53.352.352.53.838.53 1.48 0 .648-.178 1.135-.53 1.484-.352.35-.827.526-1.446.527h-.977v.093h.092z"/><path id="vi4ih" d="M69 6059.577h.707V6054H69z"/><path id="vi4ii" d="M69.092 6059.67h.092v-5.484h.522v5.391h-.614v.093h.092-.092v.093h.798V6054H69v5.763h.092v-.093"/><path id="vi4ij" d="M72.922 6059.826c-.4 0-.79-.132-1.172-.397a1.838 1.838 0 0 1-.75-1.114l.646-.264c.077.306.234.564.472.774.24.21.507.315.804.315.307 0 .57-.08.788-.244a.79.79 0 0 0 .327-.667c0-.311-.11-.55-.327-.72-.217-.17-.562-.325-1.034-.471-.487-.156-.856-.357-1.107-.604-.25-.247-.377-.562-.377-.947 0-.4.157-.747.47-1.043.312-.296.72-.444 1.222-.444.467 0 .846.118 1.137.354.292.237.482.495.57.775l-.646.273c-.047-.176-.16-.34-.342-.491-.182-.15-.417-.225-.705-.225-.271 0-.502.076-.694.23a.704.704 0 0 0-.29.571c0 .208.09.383.266.526.178.144.438.272.78.386.272.088.499.174.681.258.182.082.367.193.554.33.187.138.327.31.422.515.095.205.143.442.143.712 0 .27-.055.512-.165.725-.11.212-.257.38-.439.506a2.208 2.208 0 0 1-1.234.381"/><path id="vi4ik" d="M72.03 6059.92v-.094c-.38 0-.75-.124-1.12-.38a1.748 1.748 0 0 1-.713-1.06l-.089.022.034.086.647-.265-.035-.085-.089.022c.082.325.25.6.501.823.253.222.545.338.864.338.323 0 .609-.087.844-.264a.883.883 0 0 0 .363-.74c.002-.333-.121-.61-.363-.795-.233-.18-.586-.339-1.063-.487h.001c-.478-.151-.835-.348-1.07-.58-.234-.231-.35-.516-.35-.88 0-.375.143-.693.44-.976.295-.278.675-.42 1.16-.42.452 0 .807.114 1.08.335.282.228.458.472.54.73l.086-.028-.034-.085-.645.272.034.086.09-.024c-.054-.2-.181-.38-.374-.539-.2-.166-.46-.247-.762-.246-.289 0-.544.082-.752.25a.8.8 0 0 0-.324.644c0 .236.106.445.3.599.191.153.46.285.81.401.27.088.493.172.671.254.175.08.354.187.537.32v.002c.175.128.304.287.393.478.089.191.134.414.134.673 0 .257-.052.483-.154.68a1.26 1.26 0 0 1-.41.474h.001a2.096 2.096 0 0 1-1.183.365v.186a2.26 2.26 0 0 0 1.286-.398c.194-.133.352-.314.469-.54.117-.226.175-.484.175-.767 0-.281-.05-.533-.152-.752a1.408 1.408 0 0 0-.452-.55 3.186 3.186 0 0 0-.569-.341 6.623 6.623 0 0 0-.69-.26c-.336-.112-.588-.238-.752-.37h.001a.56.56 0 0 1-.231-.454.611.611 0 0 1 .253-.499.982.982 0 0 1 .639-.21c.272 0 .483.07.646.205l.001.001c.17.142.27.288.31.442l.028.102.742-.313.077-.033-.025-.08c-.093-.303-.297-.576-.599-.82-.312-.252-.713-.376-1.195-.375-.52 0-.954.155-1.285.47-.328.308-.5.685-.499 1.11 0 .405.137.75.406 1.013.265.262.647.468 1.143.626.467.144.804.3 1.006.457.194.153.289.356.29.646a.697.697 0 0 1-.289.592c-.2.15-.443.226-.734.227-.276 0-.518-.096-.744-.293h.001a1.402 1.402 0 0 1-.444-.727l-.026-.104-.743.305-.074.03.02.078c.12.497.386.892.786 1.17.394.272.804.412 1.224.412v-.093"/><path id="vi4il" d="M75.707 6059.577H75V6054h1.876c.466 0 .87.157 1.21.471.342.314.512.71.512 1.188s-.17.874-.512 1.188c-.34.314-.744.471-1.21.471h-1.169v2.26zm0-2.955h1.185c.297 0 .536-.1.715-.301a.982.982 0 0 0 .268-.667.979.979 0 0 0-.268-.666c-.18-.202-.418-.303-.715-.303h-1.185z"/><path id="vi4im" d="M75.8 6059.67v-.093h-.616v-5.391h1.784c.446 0 .823.148 1.149.447.324.3.48.664.481 1.12 0 .455-.157.819-.481 1.118-.326.3-.703.446-1.149.447h-1.26v2.352h.091v-.093.093h.092v-2.166h1.077c.486.001.917-.166 1.273-.496a1.64 1.64 0 0 0 .54-1.256c.002-.5-.182-.927-.54-1.257a1.819 1.819 0 0 0-1.273-.495H75v5.763h.89v-.093h-.09zm0-2.945v.093h1.184a1 1 0 0 0 .782-.333h.001c.191-.217.293-.465.292-.733 0-.268-.101-.516-.293-.731h.001a1.002 1.002 0 0 0-.783-.336h-1.277v2.133h.092v-.093h.092v-1.854h1.093c.277.002.483.091.646.273l.001.002-.001-.002c.167.19.244.388.245.608 0 .22-.079.418-.245.608-.163.182-.37.271-.646.272h-1.185v.093h.092z"/><path id="vi4in" d="M83.847 6058.981c-.541.564-1.214.845-2.018.845-.805 0-1.478-.281-2.018-.845-.541-.563-.811-1.253-.811-2.068 0-.815.27-1.505.811-2.068.54-.563 1.213-.845 2.018-.845.8 0 1.47.283 2.014.849.544.566.815 1.254.815 2.064 0 .815-.27 1.505-.81 2.068zm-3.512-.467c.408.418.907.626 1.499.626.59 0 1.09-.208 1.499-.626.408-.419.613-.952.613-1.6 0-.65-.205-1.183-.613-1.602a2.014 2.014 0 0 0-1.5-.626c-.59 0-1.09.208-1.498.626-.408.419-.613.952-.613 1.601s.205 1.183.613 1.6z"/><path id="vi4io" d="M83.939 6059.074l-.066-.065c-.526.547-1.17.816-1.953.817-.783 0-1.427-.27-1.952-.817l-.003-.003.003.003c-.525-.547-.784-1.208-.785-2.003.001-.795.26-1.456.785-2.003.525-.547 1.169-.816 1.952-.817.78 0 1.42.272 1.95.82.527.551.787 1.21.788 2 0 .795-.26 1.456-.785 2.003l.132.13c.556-.579.838-1.297.837-2.133 0-.83-.282-1.548-.84-2.129-.56-.583-1.26-.878-2.082-.877-.825 0-1.528.293-2.083.874-.558.579-.838 1.296-.837 2.132 0 .836.279 1.554.837 2.132.555.582 1.258.875 2.083.874.826.001 1.528-.292 2.085-.874l-.066-.064zm-3.514-.467l-.065.065a2.1 2.1 0 0 0 1.56.655 2.1 2.1 0 0 0 1.561-.655c.425-.434.64-.998.639-1.666 0-.668-.214-1.23-.639-1.666a2.098 2.098 0 0 0-1.56-.654c-.612 0-1.14.22-1.561.654l-.003.003.003-.003c-.425.435-.639.998-.638 1.666 0 .668.213 1.232.638 1.666l.13-.13c-.389-.401-.584-.907-.584-1.536 0-.63.195-1.135.584-1.535a1.915 1.915 0 0 1 1.43-.6 1.91 1.91 0 0 1 1.43.6c.39.401.585.906.586 1.535 0 .63-.195 1.134-.585 1.536a1.914 1.914 0 0 1-1.43.6 1.92 1.92 0 0 1-1.431-.6z"/><path id="vi4ip" d="M86 6059.577V6054h.86l2.676 4.338h.03l-.03-1.074V6054h.708v5.577h-.738l-2.8-4.549h-.03l.03 1.076v3.473H86"/><path id="vi4iq" d="M86.092 6059.67h.092v-5.484h.718l2.675 4.339h.176l-.034-1.17v-3.17h.525v5.392h-.595l-2.8-4.549h-.176l.033 1.17v3.38h-.614v.092h.091-.091v.093h.798v-3.568l-.03-1.076-.092.002v.093h.03v-.093l-.078.05 2.827 4.592h.88V6054h-.891v3.357l.031 1.077.091-.003v-.092h-.03v.092l.078-.048-2.702-4.383H86v5.763h.092v-.093"/><path id="vi4ir" d="M92 6060.01h.707v-5.577H92zm.66-6.013h-.614l.4-.997h.769z"/><path id="vi4is" d="M92.092 6060.113h.092v-5.493h.522v5.4h-.614v.093h.092-.092v.093h.798v-5.773H92v5.773h.092v-.093zm.66-6.023v-.093h-.479l.326-.811h.55l-.476.859.08.045v-.093.093l.08.046.63-1.136h-.987l-.475 1.183h.805l.027-.047z"/><path id="vi4it" d="M94.938 6059.577L93 6054h.784l1.507 4.526h.031l1.57-4.526h.783l-2 5.577h-.737"/><path id="vi4iu" d="M95.067 6059.67l.086-.03-1.893-5.454h.588l1.507 4.526h.162l1.569-4.526h.587l-1.932 5.391h-.674v.093l.086-.03-.086.03v.093h.803l2.065-5.763h-.98l-1.59 4.588.087.03v-.092h-.032v.093l.087-.03L93.98 6054H93l2.002 5.763h.065v-.093"/><path id="vi4iv" d="M101.214 6054.685h-2.507v1.769h2.261v.67h-2.26v1.768h2.506v.685H98V6054h3.214v.685"/><path id="vi4iw" d="M101.306 6054.778v-.093h-2.599v1.955h2.261v.483h-2.26v1.955h2.506v.5h-3.03v-5.392h3.03v.592h.092v-.093.093h.091V6054H98v5.763h3.397v-.87h-2.506v-1.584h2.26v-.855h-2.26v-1.583h2.506v-.093h-.091"/><path id="vi4ix" d="M103 6059.577V6054h.707v4.892h2.383v.685H103"/><path id="vi4iy" d="M103.092 6059.67h.092v-5.484h.523v4.892h2.383v.5h-2.998v.092h.092-.092v.093h3.182v-.87h-2.383V6054H103v5.763h.092v-.093"/><path id="vi4iz" d="M109 6054h.86l2.676 4.338h.03l-.03-1.074V6054h.708v5.577h-.738l-2.8-4.549h-.03l.03 1.076v3.473H109z"/><path id="vi4iA" d="M109.092 6059.67h.092v-5.484h.718l2.675 4.339h.176l-.034-1.17v-3.17h.525v5.392h-.595l-2.8-4.549h-.176l.033 1.17v3.38h-.614v.092h.091-.091v.093h.798v-3.568l-.03-1.076-.092.002v.093h.03v-.093l-.078.05 2.827 4.592h.88V6054h-.891v3.358l.03 1.076.092-.003v-.092h-.03v.092l.078-.048-2.702-4.383H109v5.763h.092v-.093"/><path id="vi4iB" d="M118.847 6058.981c-.541.564-1.214.845-2.018.845-.805 0-1.478-.281-2.018-.845-.541-.563-.811-1.253-.811-2.068 0-.815.27-1.505.811-2.068.54-.563 1.213-.845 2.018-.845.8 0 1.47.283 2.014.849.544.566.815 1.254.815 2.064 0 .815-.27 1.505-.81 2.068zm-3.512-.467c.408.418.907.626 1.499.626.59 0 1.09-.208 1.499-.626.408-.419.613-.952.613-1.6 0-.65-.205-1.183-.613-1.602a2.014 2.014 0 0 0-1.5-.626c-.59 0-1.09.208-1.498.626-.408.419-.613.952-.613 1.601s.205 1.183.613 1.6z"/><path id="vi4iC" d="M118.939 6059.074l-.066-.065c-.526.547-1.17.816-1.953.817-.783 0-1.427-.27-1.952-.817l-.003-.003.003.003c-.525-.547-.784-1.208-.785-2.003.001-.795.26-1.456.785-2.003.525-.547 1.169-.816 1.952-.817.78 0 1.42.272 1.95.82.527.551.787 1.21.788 2 0 .795-.261 1.456-.785 2.003l.132.13c.556-.579.838-1.297.837-2.133 0-.83-.282-1.548-.84-2.129-.56-.583-1.26-.878-2.082-.877-.825 0-1.528.293-2.083.874-.558.579-.838 1.296-.837 2.132 0 .836.279 1.554.837 2.132.555.582 1.258.875 2.083.874.826.001 1.528-.292 2.085-.874l-.066-.064zm-3.514-.467l-.065.065a2.1 2.1 0 0 0 1.56.655 2.1 2.1 0 0 0 1.561-.655c.425-.434.64-.998.639-1.666 0-.668-.214-1.23-.639-1.666a2.098 2.098 0 0 0-1.56-.654c-.612 0-1.14.22-1.561.654-.425.435-.639.998-.638 1.666 0 .668.213 1.232.638 1.666l.13-.13c-.389-.401-.584-.907-.584-1.536 0-.63.195-1.135.584-1.535a1.914 1.914 0 0 1 1.43-.6 1.91 1.91 0 0 1 1.43.6l.003.002-.002-.002c.39.401.584.906.585 1.535 0 .63-.195 1.134-.585 1.536a1.914 1.914 0 0 1-1.43.6 1.918 1.918 0 0 1-1.431-.6z"/><path id="vi4iD" d="M149.86 6081.454c0 2.06-1.594 3.727-3.566 3.727H29.571c-1.97 0-3.571-1.668-3.571-3.727v-29.721c0-2.06 1.6-3.733 3.571-3.733h116.722c1.973 0 3.567 1.674 3.567 3.733v29.721z"/></defs><g><g transform="translate(-24 -6047)"><g><g><use fill="#9e9e9e" xlink:href="#vi4ia"/></g><g><use fill="#9e9e9e" xlink:href="#vi4ib"/></g><g><use fill="#9e9e9e" xlink:href="#vi4ic"/><use fill="#fff" fill-opacity="0" stroke="#9e9e9e" stroke-miterlimit="50" stroke-width=".5" xlink:href="#vi4ic"/></g><g><use fill="#9e9e9e" xlink:href="#vi4id"/><use fill="#fff" fill-opacity="0" stroke="#9e9e9e" stroke-miterlimit="50" stroke-width=".5" xlink:href="#vi4id"/></g><g><use fill="#9e9e9e" xlink:href="#vi4ie"/><use fill="#fff" fill-opacity="0" stroke="#9e9e9e" stroke-miterlimit="50" stroke-width=".5" xlink:href="#vi4ie"/></g><g><use fill="#9e9e9e" xlink:href="#vi4if"/></g><g><use fill="#9e9e9e" xlink:href="#vi4ig"/></g><g><use fill="#9e9e9e" xlink:href="#vi4ih"/></g><g><use fill="#9e9e9e" xlink:href="#vi4ii"/></g><g><use fill="#9e9e9e" xlink:href="#vi4ij"/></g><g><use fill="#9e9e9e" xlink:href="#vi4ik"/></g><g><use fill="#9e9e9e" xlink:href="#vi4il"/></g><g><use fill="#9e9e9e" xlink:href="#vi4im"/></g><g><use fill="#9e9e9e" xlink:href="#vi4in"/></g><g><use fill="#9e9e9e" xlink:href="#vi4io"/></g><g><use fill="#9e9e9e" xlink:href="#vi4ip"/></g><g><use fill="#9e9e9e" xlink:href="#vi4iq"/></g><g><use fill="#9e9e9e" xlink:href="#vi4ir"/></g><g><use fill="#9e9e9e" xlink:href="#vi4is"/></g><g><use fill="#9e9e9e" xlink:href="#vi4it"/></g><g><use fill="#9e9e9e" xlink:href="#vi4iu"/></g><g><use fill="#9e9e9e" xlink:href="#vi4iv"/></g><g><use fill="#9e9e9e" xlink:href="#vi4iw"/></g><g><use fill="#9e9e9e" xlink:href="#vi4ix"/></g><g><use fill="#9e9e9e" xlink:href="#vi4iy"/></g><g><use fill="#9e9e9e" xlink:href="#vi4iz"/></g><g><use fill="#9e9e9e" xlink:href="#vi4iA"/></g><g><use fill="#9e9e9e" xlink:href="#vi4iB"/></g><g><use fill="#9e9e9e" xlink:href="#vi4iC"/></g><g/><g><use fill="#fff" fill-opacity="0" stroke="#9e9e9e" stroke-miterlimit="50" xlink:href="#vi4iD"/></g></g></g></g></svg>