<svg xmlns="http://www.w3.org/2000/svg" xmlns:xlink="http://www.w3.org/1999/xlink" width="124" height="38" viewBox="0 0 124 38"><defs><path id="g9aza" d="M304.86 6081.454c0 2.06-1.594 3.727-3.566 3.727H184.571c-1.97 0-3.571-1.668-3.571-3.727v-29.721c0-2.06 1.6-3.733 3.571-3.733h116.722c1.973 0 3.567 1.674 3.567 3.733v29.721z"/><path id="g9azb" d="M207.748 6066.321c-.028-3.183 2.55-4.731 2.668-4.803-1.46-2.176-3.723-2.474-4.518-2.497-1.9-.205-3.744 1.162-4.712 1.162-.987 0-2.478-1.142-4.084-1.108-2.067.033-4.002 1.256-5.063 3.156-2.188 3.874-.556 9.568 1.541 12.7 1.05 1.533 2.275 3.246 3.88 3.186 1.57-.068 2.155-1.024 4.05-1.024 1.878 0 2.429 1.024 4.065.985 1.685-.029 2.746-1.54 3.759-3.088 1.212-1.758 1.699-3.49 1.718-3.578-.04-.014-3.272-1.274-3.304-5.09"/><path id="g9azc" d="M204.692 6057.038c.845-1.08 1.422-2.548 1.262-4.038-1.222.055-2.75.863-3.63 1.92-.78.93-1.475 2.455-1.295 3.89 1.372.103 2.782-.709 3.663-1.772"/><path id="g9azd" d="M228.854 6078.143h-2.194l-1.202-3.86h-4.177l-1.145 3.86H218l4.139-13.143h2.556zm-3.748-5.49l-1.09-3.426c-.115-.35-.332-1.174-.65-2.472h-.04a99.037 99.037 0 0 1-.611 2.472l-1.072 3.426z"/><path id="g9aze" d="M239.927 6072.817c0 1.611-.426 2.885-1.278 3.82-.763.833-1.71 1.25-2.843 1.25-1.22 0-2.098-.45-2.631-1.347h-.039v4.992h-2.06v-10.218c0-1.013-.026-2.053-.076-3.12h1.811l.115 1.503h.038c.687-1.132 1.73-1.697 3.128-1.697 1.095 0 2.007.441 2.738 1.325.732.885 1.097 2.049 1.097 3.492m-2.098.077c0-.923-.203-1.683-.611-2.282-.445-.623-1.042-.936-1.793-.936-.508 0-.97.174-1.383.518a2.398 2.398 0 0 0-.81 1.356c-.064.26-.096.474-.096.641v1.58c0 .69.207 1.272.62 1.746.413.475.951.712 1.612.712.776 0 1.38-.306 1.812-.917.432-.611.649-1.417.649-2.418"/><path id="g9azf" d="M250.927 6072.817c0 1.611-.427 2.885-1.28 3.82-.761.833-1.71 1.25-2.841 1.25-1.22 0-2.099-.45-2.632-1.347h-.038v4.992h-2.06v-10.218c0-1.013-.026-2.053-.076-3.12h1.811l.115 1.503h.038c.687-1.132 1.729-1.697 3.128-1.697 1.093 0 2.006.441 2.738 1.325.73.885 1.097 2.049 1.097 3.492m-2.098.077c0-.923-.204-1.683-.612-2.282-.445-.623-1.041-.936-1.792-.936-.51 0-.97.174-1.384.518-.413.344-.682.796-.81 1.356-.063.26-.095.474-.095.641v1.58c0 .69.207 1.272.618 1.746.414.475.952.712 1.614.712.776 0 1.38-.306 1.811-.917.432-.611.65-1.417.65-2.418"/><path id="g9azg" d="M261.976 6074.653c0 1.118-.38 2.028-1.142 2.73-.837.767-2.003 1.15-3.502 1.15-1.382 0-2.492-.273-3.332-.818l.477-1.756c.905.56 1.897.84 2.978.84.776 0 1.38-.18 1.813-.538.433-.358.648-.838.648-1.436 0-.533-.177-.983-.535-1.348-.354-.365-.946-.702-1.773-1.016-2.252-.859-3.376-2.115-3.376-3.77 0-1.08.395-1.966 1.183-2.656.787-.69 1.836-1.035 3.148-1.035 1.17 0 2.142.208 2.917.624l-.515 1.717c-.725-.403-1.544-.606-2.46-.606-.726 0-1.292.183-1.697.547a1.576 1.576 0 0 0-.515 1.19c0 .519.196.949.59 1.286.344.312.967.65 1.87 1.015 1.107.455 1.92.987 2.442 1.598.52.612.781 1.372.781 2.282"/><path id="g9azh" d="M269.646 6069.94h-2.27v4.601c0 1.17.4 1.756 1.202 1.756.368 0 .674-.034.915-.098l.056 1.6c-.405.154-.939.232-1.601.232-.814 0-1.45-.253-1.908-.76-.457-.507-.686-1.358-.686-2.554v-4.777H264v-1.58h1.354v-1.736l2.022-.624v2.36h2.27z"/><path id="g9azi" d="M279.08 6072.855c0 1.456-.407 2.652-1.22 3.587-.854.963-1.985 1.443-3.396 1.443-1.362 0-2.445-.46-3.252-1.384-.808-.923-1.212-2.086-1.212-3.49 0-1.468.415-2.671 1.25-3.608.832-.936 1.955-1.403 3.366-1.403 1.36 0 2.455.46 3.281 1.385.79.896 1.184 2.053 1.184 3.47m-2.138.068c0-.874-.183-1.623-.553-2.249-.433-.756-1.05-1.134-1.85-1.134-.828 0-1.456.378-1.888 1.134-.37.626-.554 1.388-.554 2.289 0 .874.184 1.623.554 2.248.445.756 1.068 1.134 1.87 1.134.787 0 1.403-.385 1.849-1.153.381-.64.572-1.396.572-2.269"/><path id="g9azj" d="M285.961 6070.046a3.5 3.5 0 0 0-.65-.058c-.724 0-1.284.28-1.678.84-.344.493-.515 1.118-.515 1.871v4.973h-2.06l.02-6.494c0-1.092-.027-2.087-.078-2.983h1.795l.075 1.813h.056c.218-.623.56-1.125 1.031-1.501a2.458 2.458 0 0 1 1.49-.507c.19 0 .361.013.514.039z"/><path id="g9azk" d="M295.24 6072.505c0 .377-.024.695-.075.955h-6.18c.025.936.323 1.65.896 2.145.52.442 1.195.662 2.021.662.915 0 1.75-.149 2.5-.448l.323 1.463c-.877.39-1.913.584-3.108.584-1.437 0-2.566-.431-3.387-1.296-.818-.865-1.23-2.025-1.23-3.48 0-1.43.38-2.62 1.145-3.57.8-1.013 1.882-1.52 3.242-1.52 1.336 0 2.348.507 3.035 1.52.545.807.818 1.801.818 2.985zm-1.964-.547c.013-.624-.12-1.163-.4-1.618-.357-.585-.904-.877-1.641-.877-.675 0-1.222.285-1.641.858-.343.455-.547 1-.609 1.637z"/><path id="g9azl" d="M225.191 6057.123c0 1.162-.34 2.037-1.021 2.625-.631.542-1.528.814-2.689.814-.576 0-1.07-.026-1.481-.076v-6.353a10.688 10.688 0 0 1 1.743-.133c1.106 0 1.94.246 2.502.738.63.555.946 1.35.946 2.385m-1.068.033c0-.755-.195-1.334-.585-1.738-.391-.402-.961-.604-1.711-.604-.319 0-.59.023-.815.067v4.838c.124.02.353.03.684.03.774 0 1.372-.222 1.795-.663.42-.442.632-1.085.632-1.93"/><path id="g9azm" d="M230.46 6057.385c0 .715-.2 1.303-.6 1.762-.419.473-.974.71-1.668.71-.668 0-1.2-.227-1.598-.68-.396-.454-.594-1.025-.594-1.716 0-.72.204-1.311.613-1.772.41-.46.96-.689 1.654-.689.67 0 1.205.226 1.612.68.387.44.582 1.009.582 1.705m-1.05.034c0-.43-.091-.798-.272-1.105-.213-.372-.515-.557-.91-.557-.406 0-.715.185-.928.557-.18.307-.271.682-.271 1.123 0 .43.09.798.271 1.106.22.371.525.557.92.557.387 0 .689-.189.908-.567.188-.313.281-.685.281-1.114"/><path id="g9azn" d="M237.598 6055l-1.425 4.656h-.927l-.591-2.022a15.321 15.321 0 0 1-.366-1.503h-.018a11.2 11.2 0 0 1-.366 1.503l-.628 2.022h-.937L231 6055h1.04l.515 2.213c.125.524.228 1.021.31 1.495h.018c.075-.39.2-.885.376-1.486l.646-2.222h.824l.62 2.175c.15.53.271 1.04.365 1.533h.028c.068-.48.172-.99.31-1.533l.552-2.175z"/><path id="g9azo" d="M242.992 6059.751h-1.012v-2.666c0-.822-.306-1.233-.918-1.233-.3 0-.544.113-.732.34a1.219 1.219 0 0 0-.28.798v2.761h-1.013v-3.324c0-.409-.013-.852-.037-1.331h.89l.047.727h.028a1.48 1.48 0 0 1 .525-.561c.274-.175.581-.262.918-.262.426 0 .778.14 1.06.422.35.344.524.858.524 1.541z"/><path id="g9azp" d="M245 6059.792h1.012V6053H245z"/><path id="g9azq" d="M252.46 6057.385c0 .715-.2 1.303-.6 1.762-.419.473-.975.71-1.668.71-.67 0-1.202-.227-1.598-.68-.396-.454-.594-1.025-.594-1.716 0-.72.204-1.311.613-1.772.41-.46.96-.689 1.653-.689.67 0 1.205.226 1.613.68.387.44.582 1.009.582 1.705m-1.052.034c0-.43-.09-.798-.271-1.105-.212-.372-.515-.557-.908-.557-.408 0-.717.185-.929.557-.18.307-.271.682-.271 1.123 0 .43.09.798.271 1.106.22.371.525.557.92.557.387 0 .688-.189.907-.567.189-.313.281-.685.281-1.114"/><path id="g9azr" d="M256.74 6059.751h-.91l-.076-.536h-.028c-.31.428-.754.642-1.33.642-.43 0-.778-.141-1.04-.422a1.34 1.34 0 0 1-.356-.948c0-.569.232-1.002.698-1.303.466-.3 1.121-.447 1.965-.44v-.087c0-.613-.316-.92-.946-.92-.45 0-.846.115-1.187.345l-.205-.68c.422-.268.944-.402 1.562-.402 1.19 0 1.786.642 1.786 1.926v1.714c0 .467.023.837.067 1.111m-1.051-1.6v-.717c-1.117-.02-1.676.293-1.676.938 0 .243.064.424.195.546.13.121.295.182.494.182.223 0 .43-.071.619-.216a.878.878 0 0 0 .368-.732"/><path id="g9azs" d="M262.348 6059.792h-.899l-.047-.747h-.028c-.287.568-.776.853-1.462.853-.55 0-1.006-.22-1.368-.661-.362-.44-.544-1.012-.544-1.716 0-.753.196-1.363.59-1.829.382-.434.85-.652 1.406-.652.612 0 1.04.212 1.284.633h.018V6053h1.014v5.538c0 .453.011.87.036 1.254m-1.05-1.97v-.773a1.18 1.18 0 0 0-.394-.95.984.984 0 0 0-.677-.254c-.378 0-.674.153-.89.46-.216.304-.325.696-.325 1.173 0 .459.103.832.31 1.118.22.305.516.458.886.458a.969.969 0 0 0 .8-.382c.194-.235.29-.519.29-.85"/><path id="g9azt" d="M271.46 6057.385c0 .715-.2 1.303-.6 1.762-.419.473-.973.71-1.668.71-.667 0-1.2-.227-1.598-.68-.396-.454-.594-1.025-.594-1.716 0-.72.204-1.311.613-1.772.41-.46.96-.689 1.655-.689.668 0 1.205.226 1.611.68.387.44.582 1.009.582 1.705m-1.05.034c0-.43-.09-.798-.271-1.105-.214-.372-.515-.557-.91-.557-.406 0-.715.185-.929.557-.18.307-.271.682-.271 1.123 0 .43.09.798.271 1.106.22.371.525.557.92.557.387 0 .69-.189.91-.567.186-.313.28-.685.28-1.114"/><path id="g9azu" d="M276.991 6059.751h-1.011v-2.666c0-.822-.306-1.233-.92-1.233-.3 0-.543.113-.73.34a1.219 1.219 0 0 0-.28.798v2.761h-1.014v-3.324c0-.409-.01-.852-.036-1.331h.889l.047.727h.028c.119-.225.295-.413.525-.561.275-.175.581-.262.919-.262.425 0 .777.14 1.058.422.351.344.525.858.525 1.541z"/><path id="g9azv" d="M283.774 6055.935h-1.115v2.261c0 .575.198.863.59.863.182 0 .332-.017.451-.049l.026.785c-.2.077-.461.116-.786.116-.4 0-.712-.125-.936-.373-.226-.25-.338-.668-.338-1.256v-2.347H281v-.777h.666v-.852l.993-.306v1.158h1.115z"/><path id="g9azw" d="M288.955 6059.792h-1.013v-2.647c0-.834-.305-1.252-.917-1.252-.47 0-.79.242-.966.727-.03.101-.047.226-.047.372v2.8H285V6053h1.012v2.806h.019c.319-.51.775-.766 1.368-.766.418 0 .766.14 1.041.422.343.35.515.871.515 1.562z"/><path id="g9azx" d="M294.047 6057.212c0 .186-.013.342-.038.47h-3.036c.013.46.158.811.44 1.054.256.217.589.326.995.326.449 0 .858-.074 1.228-.22l.158.718c-.432.191-.94.287-1.528.287-.706 0-1.26-.212-1.662-.637-.404-.424-.604-.994-.604-1.71 0-.703.186-1.287.562-1.753.393-.498.923-.747 1.592-.747.655 0 1.153.249 1.49.747.269.397.403.885.403 1.465zm-.966-.277a1.397 1.397 0 0 0-.196-.789c-.176-.285-.444-.428-.806-.428-.33 0-.6.14-.806.418a1.567 1.567 0 0 0-.3.799z"/></defs><g><g transform="translate(-181 -6048)"><g><g><use fill="#fff" fill-opacity="0" stroke="#9e9e9e" stroke-miterlimit="50" xlink:href="#g9aza"/></g><g><use fill="#9e9e9e" xlink:href="#g9azb"/></g><g><use fill="#9e9e9e" xlink:href="#g9azc"/></g><g><use fill="#9e9e9e" xlink:href="#g9azd"/></g><g><use fill="#9e9e9e" xlink:href="#g9aze"/></g><g><use fill="#9e9e9e" xlink:href="#g9azf"/></g><g><use fill="#9e9e9e" xlink:href="#g9azg"/></g><g><use fill="#9e9e9e" xlink:href="#g9azh"/></g><g><use fill="#9e9e9e" xlink:href="#g9azi"/></g><g><use fill="#9e9e9e" xlink:href="#g9azj"/></g><g><use fill="#9e9e9e" xlink:href="#g9azk"/></g><g><use fill="#9e9e9e" xlink:href="#g9azl"/></g><g><use fill="#9e9e9e" xlink:href="#g9azm"/></g><g><use fill="#9e9e9e" xlink:href="#g9azn"/></g><g><use fill="#9e9e9e" xlink:href="#g9azo"/></g><g><use fill="#9e9e9e" xlink:href="#g9azp"/></g><g><use fill="#9e9e9e" xlink:href="#g9azq"/></g><g><use fill="#9e9e9e" xlink:href="#g9azr"/></g><g><use fill="#9e9e9e" xlink:href="#g9azs"/></g><g><use fill="#9e9e9e" xlink:href="#g9azt"/></g><g><use fill="#9e9e9e" xlink:href="#g9azu"/></g><g><use fill="#9e9e9e" xlink:href="#g9azv"/></g><g><use fill="#9e9e9e" xlink:href="#g9azw"/></g><g><use fill="#9e9e9e" xlink:href="#g9azx"/></g></g></g></g></svg>